<?xml version="1.0" standalone="no"?>
<!DOCTYPE svg PUBLIC "-//W3C//DTD SVG 20010904//EN"
 "http://www.w3.org/TR/2001/REC-SVG-20010904/DTD/svg10.dtd">
<svg version="1.0" xmlns="http://www.w3.org/2000/svg"
 width="500.000000pt" height="500.000000pt" viewBox="0 0 500.000000 500.000000"
 preserveAspectRatio="xMidYMid meet">

<g transform="translate(0.000000,500.000000) scale(0.100000,-0.100000)"
fill="#000000" stroke="none">
<path d="M2297 2852 c-19 -21 -22 -73 -6 -89 20 -20 -1 -33 -54 -33 -29 0
-112 5 -185 11 -159 14 -229 4 -262 -38 -39 -50 -16 -123 38 -123 53 0 82 80
43 119 -11 11 -17 22 -13 25 10 11 172 7 172 -5 0 -15 -119 -459 -132 -492
-12 -32 -36 -47 -72 -47 -14 0 -26 -4 -26 -10 0 -6 57 -10 150 -10 140 0 189
10 120 24 -24 4 -30 11 -30 32 0 15 28 132 61 259 l61 232 74 6 c45 3 92 14
117 26 24 12 46 21 50 21 16 0 3 -57 -73 -311 -44 -148 -80 -274 -80 -279 0
-7 22 -10 56 -8 l56 3 30 90 c53 163 134 305 174 305 21 0 18 -21 -31 -174
-25 -79 -45 -156 -45 -173 0 -40 28 -63 76 -63 50 0 81 22 105 74 29 65 22 88
-9 26 -26 -53 -62 -79 -62 -45 0 9 23 86 50 170 53 162 56 196 17 216 -11 6
-40 9 -64 6 -48 -5 -90 -36 -124 -92 -27 -43 -24 -29 30 153 39 131 45 162 32
158 -28 -9 -106 -26 -118 -26 -7 0 -13 11 -13 23 0 51 -78 77 -113 39z"/>
<path d="M3643 2790 c-48 -21 -93 -82 -114 -155 -13 -43 -15 -45 -51 -45 -21
0 -38 -4 -38 -10 0 -5 16 -10 36 -10 27 0 35 -4 31 -14 -6 -16 -147 -539 -147
-546 0 -3 26 -4 59 -2 58 4 58 4 69 40 6 20 38 143 72 272 34 129 66 239 70
243 8 9 149 12 157 3 3 -3 -14 -69 -37 -148 -52 -173 -55 -221 -20 -250 33
-27 110 -21 145 12 22 21 60 108 51 117 -2 3 -17 -20 -33 -49 -28 -53 -67 -76
-78 -46 -3 7 17 91 45 186 27 96 50 175 50 178 0 2 23 4 50 4 28 0 50 5 50 10
0 6 -20 10 -45 10 -44 0 -45 1 -39 28 4 15 11 37 15 50 18 49 13 54 -46 50
-48 -3 -55 -1 -55 15 0 10 -13 32 -29 48 -25 24 -38 29 -78 29 -26 0 -67 -9
-90 -20z m96 -30 c-63 -63 -5 -136 68 -85 l22 16 -14 -48 c-8 -26 -15 -49 -15
-50 0 -2 -38 -3 -84 -3 l-84 0 23 80 c24 85 37 108 70 120 37 14 43 0 14 -30z"/>
<path d="M3302 2783 c-51 -43 -32 -105 32 -105 64 0 113 71 74 110 -18 18 -83
15 -106 -5z"/>
<path d="M900 2745 c0 -3 8 -13 18 -23 15 -15 25 -71 52 -290 43 -351 32 -346
206 -79 70 105 149 227 177 269 31 47 63 83 83 95 19 9 34 21 34 25 0 10 -164
11 -174 1 -3 -4 8 -12 26 -17 58 -19 50 -43 -81 -243 -96 -148 -120 -178 -124
-160 -3 12 -13 100 -23 195 -19 182 -17 203 22 210 10 2 23 8 29 13 5 5 -42 9
-118 9 -70 0 -127 -2 -127 -5z"/>
<path d="M1490 2740 c0 -5 9 -10 20 -10 11 0 23 -7 27 -16 6 -15 -110 -470
-129 -507 -5 -10 -22 -20 -39 -24 -65 -13 -22 -23 101 -23 80 0 130 4 130 10
0 6 -9 10 -20 10 -11 0 -23 7 -27 16 -6 15 110 470 129 507 5 10 22 20 39 24
69 14 31 23 -95 23 -84 0 -136 -4 -136 -10z"/>
<path d="M2829 2585 c-29 -16 -72 -97 -66 -124 3 -11 7 -7 15 14 21 55 38 80
55 83 25 5 22 -14 -33 -211 -27 -98 -50 -180 -50 -182 0 -3 26 -5 58 -5 l57 0
24 93 c35 138 80 245 122 289 20 21 41 38 47 38 6 0 0 -12 -13 -26 -43 -46
-29 -104 25 -104 61 0 100 73 66 125 -13 19 -25 25 -55 25 -46 0 -84 -27 -110
-78 l-19 -36 2 41 c0 22 -5 48 -13 57 -17 20 -76 21 -112 1z"/>
<path d="M3212 2575 c-27 -23 -69 -112 -57 -123 2 -2 14 17 27 43 23 48 51 75
64 63 3 -4 -17 -76 -45 -160 -28 -84 -51 -167 -51 -184 0 -41 27 -64 76 -64
60 0 91 29 124 115 17 45 -8 27 -29 -20 -19 -43 -44 -65 -59 -51 -3 4 17 78
46 164 29 87 52 169 52 183 0 60 -92 81 -148 34z"/>
</g>
</svg>
