<?xml version="1.0" encoding="UTF-8" standalone="no" ?>
<!DOCTYPE svg PUBLIC "-//W3C//DTD SVG 1.1//EN" "http://www.w3.org/Graphics/SVG/1.1/DTD/svg11.dtd">
<svg xmlns="http://www.w3.org/2000/svg" xmlns:xlink="http://www.w3.org/1999/xlink" version="1.1" width="1080" height="1080" viewBox="0 0 1080 1080" xml:space="preserve">
<desc>Created with Fabric.js 5.2.4</desc>
<defs>
</defs>
<rect x="0" y="0" width="100%" height="100%" fill="transparent"></rect>
<g transform="matrix(1 0 0 1 540 540)" id="1649dd4f-b14d-4944-ba24-3c65f95517b7"  >
</g>
<g transform="matrix(1 0 0 1 540 540)" id="9c73dcfd-5295-46c4-8e5b-421c84c344a1"  >
<rect style="stroke: none; stroke-width: 1; stroke-dasharray: none; stroke-linecap: butt; stroke-dashoffset: 0; stroke-linejoin: miter; stroke-miterlimit: 4; fill: rgb(255,255,255); fill-rule: nonzero; opacity: 1; visibility: hidden;" vector-effect="non-scaling-stroke"  x="-540" y="-540" rx="0" ry="0" width="1080" height="1080" />
</g>
<g transform="matrix(8.43 0 0 8.43 539.68 479.65)"  >
<g style="" vector-effect="non-scaling-stroke"   >
		<g transform="matrix(1 0 0 1 -35.3 0)"  >
<path style="stroke: none; stroke-width: 1; stroke-dasharray: none; stroke-linecap: butt; stroke-dashoffset: 0; stroke-linejoin: miter; stroke-miterlimit: 4; fill: rgb(8,129,120); fill-rule: nonzero; opacity: 1;" vector-effect="non-scaling-stroke"  transform=" translate(-26.68, -61.98)" d="M 49.8 29.032 C 51.27395412387684 28.386366261621497 52.42420828224971 27.172157683258654 52.989220746057384 25.66545777977152 C 53.55423320986505 24.158757876284387 53.485987087274765 22.487611692560357 52.8 21.032 L 47.9 10.732 C 46.5099963630611 7.817309855188511 43.05651224311882 6.533322169568945 40.1 7.832 C 32.08441350470613 11.10024631534139 24.756538960524598 15.849794631014616 18.49999999999999 21.832000000000022 C 11.736416662444192 28.056942969853434 6.734785186280909 35.956071301173395 4 44.73200000000001 C 1.4 53.332 0 65.032 0 79.932 L 0 110.632 C 0.009884403336224375 113.94160559871273 2.690394401287282 116.62211559666378 6.000000000000003 116.632 L 45.3 116.632 C 48.60960559871272 116.62211559666378 51.290115596663775 113.94160559871273 51.3 110.632 L 51.3 71.33200000000001 C 51.29066177204393 68.02216723837836 48.609832761621654 65.34133822795607 45.3 65.33200000000001 L 26.5 65.33200000000001 C 26.7 55.232000000000006 29.1 47.132000000000005 33.5 41.03200000000001 C 37.1 36.133 42.5 32.133 49.8 29.032 Z" stroke-linecap="round" />
</g>
		<g transform="matrix(1 0 0 1 35.35 0.05)"  >
<path style="stroke: none; stroke-width: 1; stroke-dasharray: none; stroke-linecap: butt; stroke-dashoffset: 0; stroke-linejoin: miter; stroke-miterlimit: 4; fill: rgb(8,129,120); fill-rule: nonzero; opacity: 1;" vector-effect="non-scaling-stroke"  transform=" translate(-97.33, -62.03)" d="M 120.4 29.032 C 121.87376339746241 28.38614690707567 123.02383236990826 27.17192415569543 123.58881440288793 25.66530540108297 C 124.1537964358676 24.15868664647051 124.08569915616526 22.4876515505347 123.4 21.031999999999996 L 118.5 10.832 C 117.10961517428429 7.917726623428039 113.65652857716087 6.633886734753953 110.7 7.932000000000001 C 102.76490593522624 11.252091066216927 95.48455761978546 15.958920907362343 89.19999999999999 21.832 C 82.42561299565811 28.106572067294096 77.39505795103935 36.031419055392156 74.6 44.83200000000003 Q 70.7 57.432 70.7 79.932 L 70.7 110.632 C 70.70988440333623 113.94160559871273 73.39039440128728 116.62211559666378 76.7 116.632 L 116 116.632 C 119.30960559871272 116.62211559666378 121.99011559666377 113.94160559871273 122 110.632 L 122 71.33200000000001 C 121.99066177204394 68.02216723837836 119.30983276162165 65.34133822795607 116 65.33200000000001 L 97.1 65.33200000000001 C 97.3 55.232000000000006 99.69999999999999 47.132000000000005 104.1 41.03200000000001 C 107.7 36.133 113.1 32.133 120.4 29.032 Z" stroke-linecap="round" />
</g>
</g>
</g>
<g transform="matrix(NaN NaN NaN NaN 0 0)"  >
<g style=""   >
</g>
</g>
</svg>